<?xml version="1.0" encoding="UTF-8" standalone="no"?>
<svg
   xmlns:dc="http://purl.org/dc/elements/1.1/"
   xmlns:cc="http://creativecommons.org/ns#"
   xmlns:rdf="http://www.w3.org/1999/02/22-rdf-syntax-ns#"
   xmlns:svg="http://www.w3.org/2000/svg"
   xmlns="http://www.w3.org/2000/svg"
   xmlns:sodipodi="http://sodipodi.sourceforge.net/DTD/sodipodi-0.dtd"
   xmlns:inkscape="http://www.inkscape.org/namespaces/inkscape"
   id="Layer_1"
   data-name="Layer 1"
   viewBox="0 0 300 300"
   version="1.1"
   sodipodi:docname="MC-CH.svg"
   inkscape:version="0.92.4 (5da689c313, 2019-01-14)">
  <metadata
     id="metadata4003">
    <rdf:RDF>
      <cc:Work
         rdf:about="">
        <dc:format>image/svg+xml</dc:format>
        <dc:type
           rdf:resource="http://purl.org/dc/dcmitype/StillImage" />
        <dc:title>Financial tools and calculators_ICONS_FINAL</dc:title>
      </cc:Work>
    </rdf:RDF>
  </metadata>
  <sodipodi:namedview
     pagecolor="#ffffff"
     bordercolor="#666666"
     borderopacity="1"
     objecttolerance="10"
     gridtolerance="10"
     guidetolerance="10"
     inkscape:pageopacity="0"
     inkscape:pageshadow="2"
     inkscape:window-width="640"
     inkscape:window-height="480"
     id="namedview4001"
     showgrid="false"
     inkscape:zoom="0.78666667"
     inkscape:cx="150"
     inkscape:cy="150"
     inkscape:window-x="2636"
     inkscape:window-y="244"
     inkscape:window-maximized="0"
     inkscape:current-layer="Layer_1" />
  <defs
     id="defs3980">
    <style
       id="style3978">.cls-1{fill:#231f20;}</style>
  </defs>
  <title
     id="title3982">Financial tools and calculators_ICONS_FINAL</title>
  <path
     class="cls-1"
     d="M170.1,150.1a7.44,7.44,0,0,1,7.44-7.44H241V120.49h24.1a1.76,1.76,0,0,0,1.66-1.19,1.74,1.74,0,0,0-.59-2L144.29,22.74a1.74,1.74,0,0,0-2.16,0L22.87,117.36a1.76,1.76,0,0,0,1.1,3.13h22.1V245.24A1.76,1.76,0,0,0,47.83,247H170.1Z"
     id="path3984" />
  <path
     class="cls-1"
     d="M270.75,151.66H186.54a7.44,7.44,0,0,0-7.44,7.44v118a7.45,7.45,0,0,0,7.44,7.44h84.21a7.45,7.45,0,0,0,7.44-7.44v-118A7.44,7.44,0,0,0,270.75,151.66ZM224,263.75a6.62,6.62,0,0,1-6.62,6.62H201.06a6.62,6.62,0,0,1-6.62-6.62V247.41a6.62,6.62,0,0,1,6.62-6.62h16.33a6.62,6.62,0,0,1,6.62,6.62Zm.21-37.5a6.62,6.62,0,0,1-6.62,6.62H201.27a6.62,6.62,0,0,1-6.63-6.62V209.92a6.62,6.62,0,0,1,6.63-6.62H217.6a6.62,6.62,0,0,1,6.62,6.62Zm38.63,37.5a6.63,6.63,0,0,1-6.62,6.62H239.89a6.63,6.63,0,0,1-6.62-6.62V247.41a6.63,6.63,0,0,1,6.62-6.62h16.34a6.63,6.63,0,0,1,6.62,6.62Zm.21-37.5a6.62,6.62,0,0,1-6.63,6.62H240.1a6.62,6.62,0,0,1-6.62-6.62V209.92a6.62,6.62,0,0,1,6.62-6.62h16.33a6.62,6.62,0,0,1,6.63,6.62Zm2.06-37.5a6.62,6.62,0,0,1-6.62,6.63H198.79a6.62,6.62,0,0,1-6.62-6.63V172.42a6.62,6.62,0,0,1,6.62-6.62H258.5a6.62,6.62,0,0,1,6.62,6.62Z"
     id="path3986" />
  <rect
     class="cls-1"
     x="238.71"
     y="215.65"
     width="18.71"
     height="4.86"
     rx="1.24"
     ry="1.24"
     id="rect3988" />
  <path
     class="cls-1"
     d="M217.55,215.65h-4.48a1.25,1.25,0,0,1-1.24-1.24V210a1.25,1.25,0,0,0-1.24-1.24h-2.38A1.25,1.25,0,0,0,207,210v4.44a1.25,1.25,0,0,1-1.24,1.24h-4.41a1.25,1.25,0,0,0-1.24,1.24v2.39a1.25,1.25,0,0,0,1.24,1.24h4.41a1.24,1.24,0,0,1,1.24,1.24v4.44a1.25,1.25,0,0,0,1.24,1.24h2.38a1.25,1.25,0,0,0,1.24-1.24v-4.44a1.24,1.24,0,0,1,1.24-1.24h4.48a1.25,1.25,0,0,0,1.24-1.24v-2.39A1.25,1.25,0,0,0,217.55,215.65Z"
     id="path3990" />
  <path
     class="cls-1"
     d="M216.68,251.56a1.23,1.23,0,0,0,0-1.75L215,248.12a1.26,1.26,0,0,0-1.76,0l-3.16,3.17a1.24,1.24,0,0,1-1.75,0l-3.14-3.14a1.26,1.26,0,0,0-1.76,0l-1.68,1.68a1.24,1.24,0,0,0,0,1.76l3.14,3.14a1.24,1.24,0,0,1,0,1.75l-3.12,3.12a1.24,1.24,0,0,0,0,1.75l1.69,1.69a1.24,1.24,0,0,0,1.75,0l3.12-3.12a1.24,1.24,0,0,1,1.75,0l3.14,3.14a1.24,1.24,0,0,0,1.75,0l1.69-1.68a1.26,1.26,0,0,0,0-1.76l-3.14-3.14a1.24,1.24,0,0,1,0-1.75Z"
     id="path3992" />
  <rect
     class="cls-1"
     x="238.71"
     y="253.17"
     width="18.71"
     height="4.86"
     rx="1.24"
     ry="1.24"
     id="rect3994" />
  <rect
     class="cls-1"
     x="245.63"
     y="246.23"
     width="4.86"
     height="4.86"
     rx="1.24"
     ry="1.24"
     id="rect3996" />
  <rect
     class="cls-1"
     x="245.63"
     y="260.07"
     width="4.86"
     height="4.86"
     rx="1.24"
     ry="1.24"
     id="rect3998" />
</svg>
